<svg xmlns="http://www.w3.org/2000/svg" viewBox="0 0 1200 320" role="img" aria-labelledby="title desc">
  <title id="title">ksenja_barber</title>
  <desc id="desc">Premium handwritten barber logo with golden scissors</desc>
  <defs>
    <linearGradient id="ink" x1="0" y1="0" x2="1" y2="1">
      <stop offset="0" stop-color="#f2dfb8"/>
      <stop offset="0.55" stop-color="#d2aa64"/>
      <stop offset="1" stop-color="#8f6a2f"/>
    </linearGradient>
    <filter id="glow" x="-30%" y="-30%" width="160%" height="160%">
      <feGaussianBlur stdDeviation="7" result="blur"/>
      <feMerge><feMergeNode in="blur"/><feMergeNode in="SourceGraphic"/></feMerge>
    </filter>
  </defs>
  <g fill="none" stroke="url(#ink)" stroke-linecap="round" stroke-linejoin="round">
    <path d="M94 228 C155 220 190 179 221 123 C244 81 267 57 284 56 C303 54 300 85 279 121 C252 168 211 208 173 235 C149 252 128 262 118 255 C106 246 126 223 151 209 C184 190 224 184 271 190" stroke-width="8"/>
    <path d="M270 191 C298 181 323 182 337 194 C350 205 346 222 327 232 C307 243 278 242 269 226 C260 210 274 193 297 190 C322 186 344 198 362 214 C380 229 400 241 422 237 C445 233 461 216 455 203 C448 189 421 191 407 204 C389 220 391 244 409 256 C432 271 468 257 491 232 C510 211 523 185 533 158" stroke-width="8"/>
    <path d="M511 252 C535 250 554 234 566 215 C578 195 585 172 592 147 C599 123 610 89 625 67 C642 44 660 40 668 52 C676 64 668 87 649 112 C629 138 601 162 577 177" stroke-width="8"/>
    <path d="M571 215 C589 192 613 180 636 181 C657 182 670 194 666 209 C661 226 640 240 619 240 C598 240 583 228 588 211 C594 193 620 181 645 183 C671 186 693 207 712 223 C731 239 747 244 763 235 C778 226 788 208 795 188" stroke-width="8"/>
    <path d="M784 237 C806 238 826 224 841 204 C856 184 867 160 879 137 C891 114 906 87 922 66 C936 48 953 42 962 52 C971 63 965 84 948 106 C928 132 900 156 871 174" stroke-width="8"/>
    <path d="M840 204 C858 184 880 178 900 184 C919 190 925 207 914 220 C902 235 878 242 858 235 C840 228 835 211 846 197 C861 178 889 176 915 187 C940 198 958 219 978 230 C1000 242 1024 240 1048 226" stroke-width="8"/>
    <path d="M232 262 C270 277 310 278 347 263" stroke-width="4" opacity=".65"/>
    <path d="M1048 226 C1084 211 1120 202 1152 205" stroke-width="5"/>
  </g>
  <g transform="translate(1012 164) rotate(-14)" stroke="url(#ink)" fill="none" stroke-width="5" stroke-linecap="round" stroke-linejoin="round" filter="url(#glow)">
    <circle cx="0" cy="38" r="17"/>
    <circle cx="35" cy="38" r="17"/>
    <path d="M12 25 L72 -23"/>
    <path d="M24 25 L82 -7"/>
    <path d="M71 -23 L90 -35"/>
    <path d="M82 -7 L104 -13"/>
    <circle cx="18" cy="20" r="4" fill="#d2aa64" stroke="none"/>
  </g>
  <g fill="#efd69a" filter="url(#glow)">
    <path d="M1108 89 l5 14 14 5-14 5-5 14-5-14-14-5 14-5z"/>
    <circle cx="1141" cy="75" r="4"/>
  </g>
</svg>